<svg width="21" height="20" viewBox="0 0 21 20" fill="none" xmlns="http://www.w3.org/2000/svg">
<path d="M10.5 11.5C10.1694 11.5 9.89256 11.408 9.66933 11.224C9.44611 11.04 9.33411 10.8126 9.33333 10.5417C9.33255 10.2708 9.44456 10.0433 9.66933 9.85933C9.89411 9.67533 10.171 9.58333 10.5 9.58333C10.829 9.58333 11.1063 9.67533 11.3318 9.85933C11.5574 10.0433 11.669 10.2708 11.6667 10.5417C11.6643 10.8126 11.5523 11.0403 11.3307 11.225C11.109 11.4096 10.8321 11.5013 10.5 11.5ZM5.00267 11.224C4.77867 11.0413 4.66667 10.8138 4.66667 10.5417C4.66667 10.2695 4.77867 10.0421 5.00267 9.85933C5.22667 9.67661 5.50356 9.58461 5.83333 9.58333C6.16311 9.58206 6.44039 9.67406 6.66517 9.85933C6.88994 10.0446 7.00156 10.2721 7 10.5417C6.99844 10.8113 6.88644 11.039 6.664 11.225C6.44156 11.4109 6.16467 11.5026 5.83333 11.5C5.502 11.4974 5.22511 11.4054 5.00267 11.224ZM15.1667 11.5C14.8361 11.5 14.5592 11.408 14.336 11.224C14.1128 11.04 14.0008 10.8126 14 10.5417C13.9992 10.2708 14.1112 10.0433 14.336 9.85933C14.5608 9.67533 14.8377 9.58333 15.1667 9.58333C15.4957 9.58333 15.7729 9.67533 15.9985 9.85933C16.2241 10.0433 16.3357 10.2708 16.3333 10.5417C16.331 10.8126 16.219 11.0403 15.9973 11.225C15.7757 11.4096 15.4988 11.5013 15.1667 11.5ZM10.5 15.3333C10.1694 15.3333 9.89256 15.2413 9.66933 15.0573C9.44611 14.8733 9.33411 14.6459 9.33333 14.375C9.33255 14.1041 9.44456 13.8767 9.66933 13.6927C9.89411 13.5087 10.171 13.4167 10.5 13.4167C10.829 13.4167 11.1063 13.5087 11.3318 13.6927C11.5574 13.8767 11.669 14.1041 11.6667 14.375C11.6643 14.6459 11.5523 14.8737 11.3307 15.0583C11.109 15.2429 10.8321 15.3346 10.5 15.3333ZM5.00267 15.0573C4.77867 14.8746 4.66667 14.6472 4.66667 14.375C4.66667 14.1028 4.77867 13.8754 5.00267 13.6927C5.22667 13.5099 5.50356 13.4179 5.83333 13.4167C6.16311 13.4154 6.44039 13.5074 6.66517 13.6927C6.88994 13.8779 7.00156 14.1054 7 14.375C6.99844 14.6446 6.88644 14.8724 6.664 15.0583C6.44156 15.2442 6.16467 15.3359 5.83333 15.3333C5.502 15.3308 5.22511 15.2388 5.00267 15.0573ZM15.1667 15.3333C14.8361 15.3333 14.5592 15.2413 14.336 15.0573C14.1128 14.8733 14.0008 14.6459 14 14.375C13.9992 14.1041 14.1112 13.8767 14.336 13.6927C14.5608 13.5087 14.8377 13.4167 15.1667 13.4167C15.4957 13.4167 15.7729 13.5087 15.9985 13.6927C16.2241 13.8767 16.3357 14.1041 16.3333 14.375C16.331 14.6459 16.219 14.8737 15.9973 15.0583C15.7757 15.2429 15.4988 15.3346 15.1667 15.3333ZM2.33333 19.1667C1.69167 19.1667 1.14256 18.9792 0.686 18.6041C0.229444 18.2291 0.000777778 17.7777 0 17.25V3.83333C0 3.30625 0.228667 2.85519 0.686 2.48017C1.14333 2.10514 1.69244 1.91731 2.33333 1.91667H3.5V0H5.83333V1.91667H15.1667V0H17.5V1.91667H18.6667C19.3083 1.91667 19.8578 2.1045 20.3152 2.48017C20.7725 2.85583 21.0008 3.30689 21 3.83333V17.25C21 17.7771 20.7717 18.2285 20.3152 18.6041C19.8586 18.9798 19.3091 19.1673 18.6667 19.1667H2.33333ZM2.33333 17.25H18.6667V7.66667H2.33333V17.25Z" fill="black"/>
</svg>
