<svg width="7" height="13" viewBox="0 0 7 13" fill="none" xmlns="http://www.w3.org/2000/svg">
<path d="M6.71874 6.72922L0.84915 12.4426C0.778343 12.5117 0.688627 12.5582 0.591359 12.5763C0.494092 12.5944 0.393644 12.5832 0.302729 12.5442C0.211815 12.5052 0.134521 12.4401 0.0806307 12.3571C0.0267402 12.2741 -0.00132469 12.177 -1.13987e-05 12.0781L0.15624 0.493151C0.157596 0.394225 0.188269 0.297922 0.244377 0.216436C0.300486 0.13495 0.379508 0.0719415 0.471442 0.0353848C0.563375 -0.00117181 0.664088 -0.00963337 0.760833 0.0110719C0.857577 0.0317772 0.946005 0.0807171 1.01492 0.151699L6.72828 6.02129C6.77422 6.06835 6.81041 6.12402 6.8348 6.1851C6.85918 6.24618 6.87128 6.31147 6.87039 6.37723C6.8695 6.443 6.85565 6.50794 6.82963 6.56834C6.8036 6.62873 6.76592 6.68341 6.71874 6.72922Z" fill="black"/>
</svg>
