<svg width="13" height="7" viewBox="0 0 13 7" fill="none" xmlns="http://www.w3.org/2000/svg">
<path d="M5.8719 6.70461L0.143037 0.850158C0.0737527 0.779533 0.0269776 0.689941 0.00863214 0.592721C-0.00971337 0.495502 0.00119515 0.395025 0.0399777 0.304007C0.0787603 0.21299 0.143673 0.135524 0.2265 0.0814146C0.309327 0.0273049 0.406345 -0.00101666 0.505275 3.50156e-05L12.0906 0.12565C12.1895 0.126744 12.2859 0.157162 12.3675 0.213055C12.4492 0.268948 12.5124 0.347803 12.5492 0.43964C12.586 0.531477 12.5947 0.632166 12.5743 0.728965C12.5538 0.825764 12.5051 0.914321 12.4343 0.983427L6.57986 6.71229C6.53291 6.75835 6.47734 6.79469 6.41632 6.81924C6.35531 6.84378 6.29005 6.85605 6.22429 6.85534C6.15852 6.85462 6.09355 6.84094 6.03308 6.81508C5.97261 6.78922 5.91784 6.75168 5.8719 6.70461Z" fill="black"/>
</svg>
